<svg width="8" height="8" viewBox="0 0 8 8" fill="none" xmlns="http://www.w3.org/2000/svg">
<g clip-path="url(#clip0_135_2245)">
<path d="M3.31233 5.16659C3.28257 5.05123 3.22245 4.94595 3.13821 4.86171C3.05397 4.77747 2.94869 4.71735 2.83333 4.68759L0.788334 4.16025C0.753444 4.15035 0.722737 4.12934 0.700871 4.1004C0.679006 4.07147 0.667175 4.03619 0.667175 3.99992C0.667175 3.96365 0.679006 3.92837 0.700871 3.89944C0.722737 3.8705 0.753444 3.84949 0.788334 3.83959L2.83333 3.31192C2.94865 3.28219 3.0539 3.22211 3.13813 3.13793C3.22237 3.05376 3.28252 2.94855 3.31233 2.83325L3.83967 0.788254C3.84947 0.753226 3.87046 0.722368 3.89944 0.700385C3.92842 0.678403 3.96379 0.666504 4.00017 0.666504C4.03654 0.666504 4.07191 0.678403 4.10089 0.700385C4.12987 0.722368 4.15086 0.753226 4.16067 0.788254L4.68767 2.83325C4.71743 2.94861 4.77755 3.05389 4.86179 3.13813C4.94603 3.22237 5.05131 3.28249 5.16667 3.31225L7.21167 3.83925C7.24683 3.84895 7.27785 3.86992 7.29995 3.89895C7.32205 3.92797 7.33402 3.96344 7.33402 3.99992C7.33402 4.0364 7.32205 4.07187 7.29995 4.10089C7.27785 4.12992 7.24683 4.15089 7.21167 4.16059L5.16667 4.68759C5.05131 4.71735 4.94603 4.77747 4.86179 4.86171C4.77755 4.94595 4.71743 5.05123 4.68767 5.16659L4.16033 7.21159C4.15053 7.24661 4.12954 7.27747 4.10056 7.29946C4.07158 7.32144 4.03621 7.33334 3.99983 7.33334C3.96346 7.33334 3.92809 7.32144 3.89911 7.29946C3.87013 7.27747 3.84914 7.24661 3.83933 7.21159L3.31233 5.16659Z" stroke="#7E22CE" stroke-opacity="0.5" stroke-linecap="round" stroke-linejoin="round"/>
<path d="M6.66669 1V2.33333" stroke="#7E22CE" stroke-opacity="0.5" stroke-linecap="round" stroke-linejoin="round"/>
<path d="M7.33333 1.66675H6" stroke="#7E22CE" stroke-opacity="0.5" stroke-linecap="round" stroke-linejoin="round"/>
<path d="M1.33331 5.66675V6.33341" stroke="#7E22CE" stroke-opacity="0.5" stroke-linecap="round" stroke-linejoin="round"/>
<path d="M1.66667 6H1" stroke="#7E22CE" stroke-opacity="0.5" stroke-linecap="round" stroke-linejoin="round"/>
</g>
<defs>
<clipPath id="clip0_135_2245">
<rect width="8" height="8" fill="white"/>
</clipPath>
</defs>
</svg>
