<svg width="8" height="8" viewBox="0 0 8 8" fill="none" xmlns="http://www.w3.org/2000/svg">
<g clip-path="url(#clip0_184_1109)">
<path d="M4 6.66663H7" stroke="#15803D" stroke-linecap="round" stroke-linejoin="round"/>
<path d="M5.4587 1.20737C5.5914 1.07467 5.77137 1.00012 5.95903 1.00012C6.14669 1.00012 6.32667 1.07467 6.45937 1.20737C6.59206 1.34006 6.66661 1.52004 6.66661 1.7077C6.66661 1.89536 6.59206 2.07534 6.45937 2.20803L2.45603 6.2117C2.37673 6.291 2.27871 6.34901 2.17103 6.38037L1.2137 6.6597C1.18502 6.66807 1.15461 6.66857 1.12567 6.66115C1.09673 6.65374 1.07031 6.63868 1.04918 6.61755C1.02805 6.59643 1.013 6.57001 1.00558 6.54106C0.998165 6.51212 0.998667 6.48172 1.00703 6.45303L1.28637 5.4957C1.31777 5.38815 1.37578 5.29024 1.45503 5.21103L5.4587 1.20737Z" stroke="#15803D" stroke-linecap="round" stroke-linejoin="round"/>
</g>
<defs>
<clipPath id="clip0_184_1109">
<rect width="8" height="8" fill="white"/>
</clipPath>
</defs>
</svg>
