<svg width="8" height="8" viewBox="0 0 8 8" fill="none" xmlns="http://www.w3.org/2000/svg">
<g clip-path="url(#clip0_135_2260)">
<path d="M4 6.66675H7" stroke="#15803D" stroke-opacity="0.5" stroke-linecap="round" stroke-linejoin="round"/>
<path d="M5.4587 1.20724C5.5914 1.07455 5.77137 1 5.95903 1C6.14669 1 6.32667 1.07455 6.45937 1.20724C6.59206 1.33994 6.66661 1.51992 6.66661 1.70758C6.66661 1.89524 6.59206 2.07521 6.45937 2.20791L2.45603 6.21158C2.37673 6.29088 2.27871 6.34889 2.17103 6.38025L1.2137 6.65958C1.18502 6.66794 1.15461 6.66845 1.12567 6.66103C1.09673 6.65362 1.07031 6.63856 1.04918 6.61743C1.02805 6.5963 1.013 6.56989 1.00558 6.54094C0.998165 6.512 0.998667 6.48159 1.00703 6.45291L1.28637 5.49558C1.31777 5.38802 1.37578 5.29012 1.45503 5.21091L5.4587 1.20724Z" stroke="#15803D" stroke-opacity="0.5" stroke-linecap="round" stroke-linejoin="round"/>
</g>
<defs>
<clipPath id="clip0_135_2260">
<rect width="8" height="8" fill="white"/>
</clipPath>
</defs>
</svg>
