<svg width="8" height="8" viewBox="0 0 8 8" fill="none" xmlns="http://www.w3.org/2000/svg">
<g clip-path="url(#clip0_135_2254)">
<path d="M5.33335 1C5.15654 1 4.98697 1.07024 4.86195 1.19526C4.73693 1.32029 4.66669 1.48986 4.66669 1.66667V3.66667C4.66669 3.84348 4.73693 4.01305 4.86195 4.13807C4.98697 4.2631 5.15654 4.33333 5.33335 4.33333C5.42176 4.33333 5.50654 4.36845 5.56906 4.43096C5.63157 4.49348 5.66669 4.57826 5.66669 4.66667V5C5.66669 5.17681 5.59645 5.34638 5.47142 5.4714C5.3464 5.59643 5.17683 5.66667 5.00002 5.66667C4.91161 5.66667 4.82683 5.70179 4.76432 5.7643C4.70181 5.82681 4.66669 5.91159 4.66669 6V6.66667C4.66669 6.75507 4.70181 6.83986 4.76432 6.90237C4.82683 6.96488 4.91161 7 5.00002 7C5.53045 7 6.03916 6.78929 6.41423 6.41421C6.78931 6.03914 7.00002 5.53043 7.00002 5V1.66667C7.00002 1.48986 6.92978 1.32029 6.80476 1.19526C6.67973 1.07024 6.51016 1 6.33335 1H5.33335Z" stroke="#1D4ED8" stroke-opacity="0.5" stroke-linecap="round" stroke-linejoin="round"/>
<path d="M1.66667 1C1.48986 1 1.32029 1.07024 1.19526 1.19526C1.07024 1.32029 1 1.48986 1 1.66667V3.66667C1 3.84348 1.07024 4.01305 1.19526 4.13807C1.32029 4.2631 1.48986 4.33333 1.66667 4.33333C1.75507 4.33333 1.83986 4.36845 1.90237 4.43096C1.96488 4.49348 2 4.57826 2 4.66667V5C2 5.17681 1.92976 5.34638 1.80474 5.4714C1.67971 5.59643 1.51014 5.66667 1.33333 5.66667C1.24493 5.66667 1.16014 5.70179 1.09763 5.7643C1.03512 5.82681 1 5.91159 1 6V6.66667C1 6.75507 1.03512 6.83986 1.09763 6.90237C1.16014 6.96488 1.24493 7 1.33333 7C1.86377 7 2.37247 6.78929 2.74755 6.41421C3.12262 6.03914 3.33333 5.53043 3.33333 5V1.66667C3.33333 1.48986 3.2631 1.32029 3.13807 1.19526C3.01305 1.07024 2.84348 1 2.66667 1H1.66667Z" stroke="#1D4ED8" stroke-opacity="0.5" stroke-linecap="round" stroke-linejoin="round"/>
</g>
<defs>
<clipPath id="clip0_135_2254">
<rect width="8" height="8" fill="white"/>
</clipPath>
</defs>
</svg>
