<svg width="10" height="10" viewBox="0 0 10 10" fill="none" xmlns="http://www.w3.org/2000/svg">
<g clip-path="url(#clip0_135_2302)">
<path d="M3.12907 8.25075C3.67969 8.56829 4.31854 8.75 4.99983 8.75C7.07092 8.75 8.75 7.07108 8.75 5C8.75 2.92893 7.07108 1.25 5 1.25C2.92893 1.25 1.25 2.92893 1.25 5C1.25 5.68129 1.43168 6.32017 1.74925 6.87079L1.75047 6.87292C1.78103 6.92588 1.79644 6.95263 1.80342 6.97788C1.81 7.00167 1.81184 7.02308 1.81015 7.04775C1.80835 7.07421 1.79942 7.10167 1.78112 7.15658L1.46078 8.11762L1.46037 8.11887C1.39278 8.32162 1.35899 8.423 1.38308 8.49058C1.40408 8.54946 1.4507 8.59596 1.5096 8.61696C1.57701 8.641 1.67794 8.60738 1.87981 8.54008L1.88232 8.53912L2.84335 8.21879C2.89807 8.20054 2.92589 8.19129 2.95233 8.1895C2.97698 8.18779 2.99824 8.19004 3.02205 8.19662C3.04737 8.20362 3.0741 8.21904 3.12735 8.24975L3.12907 8.25075Z" stroke="#FB4B00" stroke-opacity="0.5" stroke-width="1.2" stroke-linecap="round" stroke-linejoin="round"/>
</g>
<defs>
<clipPath id="clip0_135_2302">
<rect width="10" height="10" fill="white"/>
</clipPath>
</defs>
</svg>
